<svg width="831" height="513" viewBox="0 0 831 513" fill="none" xmlns="http://www.w3.org/2000/svg">
<rect x="-53" y="34.0225" width="831.289" height="443.733" rx="28.4444" fill="#D1ECFD"/>
<rect x="4.28882" y="0.0224609" width="823" height="512" rx="28.4444" fill="#5468E7"/>
<path fill-rule="evenodd" clip-rule="evenodd" d="M672.76 57.501C675.977 49.0338 677.585 44.8002 680.351 41.6814C682.793 38.9262 685.869 36.805 689.312 35.4998C693.209 34.0225 697.738 34.0225 706.796 34.0225H834.591C847.335 34.0225 853.708 34.0225 858.575 36.5027C862.857 38.6843 866.338 42.1655 868.52 46.4472C871 51.3149 871 57.687 871 70.4314V441.614C871 454.358 871 460.73 868.52 465.598C866.338 469.879 862.857 473.361 858.575 475.542C853.708 478.022 847.335 478.022 834.591 478.022H565.78C548.057 478.022 539.195 478.022 533.514 474.299C528.544 471.042 525.046 465.971 523.766 460.168C522.303 453.535 525.45 445.251 531.744 428.683L672.76 57.501Z" fill="#FFC7DF"/>
</svg>
