<svg width="457" height="583" viewBox="0 0 457 583" fill="none" xmlns="http://www.w3.org/2000/svg">
<path d="M47.7106 0.0165644C26.1853 4.66012 9.00487 22.1463 2.59776 42.9108C-4.03691 64.4219 2.66887 86.9997 19.2306 102.075C35.2235 116.617 59.0529 123.48 79.7462 115.529C99.1027 108.091 115.92 86.8788 106.576 65.6735C98.6831 47.7677 75.2875 37.3001 57.012 45.1152C38.7364 52.9303 29.8547 74.8041 33.1969 93.6912C37.4209 117.521 60.5746 130.669 81.7444 137.332C107.387 145.453 137.261 146.648 158.267 165.336C174.829 180.07 182.95 203.025 181.3 224.948C180.545 235.934 177.062 246.559 171.167 255.86C164.646 265.951 153.517 274.591 141.243 275.771C127.59 277.087 117.776 266.612 116.788 253.464C115.714 239.007 124.475 226.37 132.802 215.398C148.71 194.449 169.069 173.592 195.494 167.135C218.896 161.446 247.042 167.889 259.451 190.168C273.517 215.426 263.504 245.57 248.592 267.857C240.5 279.945 230.879 290.975 221.407 301.99C211.778 313.19 202.064 324.333 192.962 335.988C175.739 358.089 160.713 382.345 154.235 409.894C148.155 435.736 149.968 463.526 164.312 486.417C177.638 507.75 199.156 522.804 222.04 532.454C250.626 544.543 281.702 549.293 311.995 555.081L409.161 573.656L455.753 582.559C456.756 582.751 457.176 581.215 456.18 581.016L360.18 562.662C328.948 556.696 297.496 551.412 266.477 544.415C238.864 538.178 211.167 529.097 188.816 511.128C178.918 503.17 170.214 493.62 163.892 482.555C157.105 470.469 153.25 456.958 152.635 443.11C149.542 382.872 194.157 336.713 230.232 294.125C247.412 273.83 265.076 251.231 267.437 223.725C268.468 211.835 266.584 199.405 260.617 188.945C255.121 179.506 246.625 172.176 236.482 168.123C214.594 159.128 189.94 164.013 170.47 176.408C159.59 183.355 150.111 192.301 141.648 201.972C133.008 211.857 123.97 222.715 118.722 234.84C114.256 245.165 113.24 257.887 119.824 267.601C125.712 276.276 136.137 279.021 146 276.539C167.483 271.135 179.892 249.382 182.516 228.717C185.112 208.223 179.117 186.498 165.72 170.683C148.653 150.566 122.015 145.737 97.6591 139.949C74.5907 134.473 46.2671 125.236 36.8591 100.923C29.3426 81.5028 37.4066 55.7677 56.9622 46.8788C76.7169 37.8832 103.64 51.8566 107.252 73.3961C111.59 99.2094 83.3871 117.556 60.596 117.293C37.8049 117.03 15.5186 102.36 6.12487 81.581C-3.63868 59.949 3.21643 34.349 19.38 17.7517C27.1551 9.64656 37.1527 4.02062 48.116 1.58101C49.1329 1.36056 48.692 -0.175436 47.7106 0.0165644Z" fill="#9A97ED"/>
</svg>
